<svg xmlns="http://www.w3.org/2000/svg" xmlns:xlink="http://www.w3.org/1999/xlink" width="410" height="217.1"><rect width="410" height="217.1" rx="0" ry="0" class="a"/><svg height="217.1" viewBox="0 0 41 21.71" width="410" xmlns="http://www.w3.org/2000/svg" xmlns:xlink="http://www.w3.org/1999/xlink"><style>.a{fill:#111111}.e,.f,.g,.h{fill:#dbab79;white-space:pre}.f,.g,.h{fill:#b9c0cb}.g,.h{fill:#e88388}.h{fill:#b9c0cb;font-weight:700}</style><g font-family="Monaco,Consolas,Menlo,'Bitstream Vera Sans Mono','Powerline Symbols',monospace" font-size="1.67"><defs><symbol id="a"><path fill="transparent" d="M0 0h41v10H0z"/></symbol><symbol id="b"><path fill="#6f7683" d="M0 0h1.102v2.171H0z"/></symbol></defs><path class="a" d="M0 0h41v21.71H0z"/><svg width="41"><svg><use xlink:href="#a"/><use xlink:href="#b" x="32.996" y="10.83"/><text x="1.002" y="1.67" class="e">1</text><text x="3.006" y="1.67" class="e">package</text><text x="11.022" y="1.67" class="f">main</text><text x="1.002" y="3.841" class="e">2</text><text x="1.002" y="6.012" class="e">3</text><text x="3.006" y="6.012" class="e">import</text><text x="10.02" y="6.012" class="g">&quot;fmt&quot;</text><text x="1.002" y="8.183" class="e">4</text><text x="1.002" y="10.354" class="e">5</text><text x="3.006" y="10.354" class="e">func</text><text x="8.016" y="10.354" class="f">main()</text><text x="15.03" y="10.354" class="f">{</text><text x="1.002" y="12.525" class="e">6</text><text x="7.014" y="12.525" class="f">fmt.Printf(</text><text x="18.036" y="12.525" class="g">&quot;hello</text><text x="25.05" y="12.525" class="g">aretext!&quot;</text><text x="34.068" y="12.525" class="f">)</text><text x="1.002" y="14.696" class="e">7</text><text x="3.006" y="14.696" class="f">}</text><text y="21.209" class="h">--</text><text x="3.006" y="21.209" class="h">INSERT</text><text x="10.02" y="21.209" class="h">--</text></svg></svg></g></svg></svg>
